name rise30.3154peak39.0474fall46.5389.mot
datacolumns 19
datarows 30
range 4.98164900000000 5.02998200000000
endheader
time	ground_force1_vx	ground_force1_vy	ground_force1_vz	ground_force1_px	ground_force1_py	ground_force1_pz	ground_force2_vx	ground_force2_vy	ground_force2_vz	ground_force2_px	ground_force2_py	ground_force2_pz	ground_torque1_x	ground_torque1_y	ground_torque1_z	ground_torque2_x	ground_torque2_y	ground_torque2_z	
4.98164900000000	48.02496700000000	721.08429400000000	53.55548600000000	0.29751400000000	0.00000000000000	0.12083500000000	-0.01710000000000	3.41711400000000	0.47023200000000	0.00000000000000	0.00000000000000	0.00000000000000	0.00000000000000	19.00488400000000	0.00000000000000	0.00000000000000	-0.00571600000000	0.00000000000000	
4.98331500000000	47.42330600000000	724.02587700000004	53.56049900000000	0.29658200000000	0.00000000000000	0.12078300000000	0.00000000000000	0.00000000000000	0.00000000000000	0.00000000000000	0.00000000000000	0.00000000000000	0.00000000000000	19.00014900000000	0.00000000000000	0.00000000000000	0.00000000000000	0.00000000000000	
4.98498600000000	46.83022200000000	726.91853600000002	53.57455700000000	0.29568700000000	0.00000000000000	0.12073000000000	0.00000000000000	0.00000000000000	0.00000000000000	0.00000000000000	0.00000000000000	0.00000000000000	0.00000000000000	19.00183900000000	0.00000000000000	0.00000000000000	0.00000000000000	0.00000000000000	
4.98665000000000	46.24623200000000	729.75966600000004	53.59774200000000	0.29482800000000	0.00000000000000	0.12067800000000	0.00000000000000	0.00000000000000	0.00000000000000	0.00000000000000	0.00000000000000	0.00000000000000	0.00000000000000	19.00988900000000	0.00000000000000	0.00000000000000	0.00000000000000	0.00000000000000	
4.98832100000000	45.67175400000000	732.54657299999997	53.63001700000000	0.29400300000000	0.00000000000000	0.12062600000000	0.00000000000000	0.00000000000000	0.00000000000000	0.00000000000000	0.00000000000000	0.00000000000000	0.00000000000000	19.02417300000000	0.00000000000000	0.00000000000000	0.00000000000000	0.00000000000000	
4.98998600000000	45.10711300000000	735.27648999999997	53.67123600000000	0.29321000000000	0.00000000000000	0.12057400000000	0.00000000000000	0.00000000000000	0.00000000000000	0.00000000000000	0.00000000000000	0.00000000000000	0.00000000000000	19.04450700000000	0.00000000000000	0.00000000000000	0.00000000000000	0.00000000000000	
4.99164900000000	44.55254300000000	737.94659300000001	53.72114700000000	0.29244700000000	0.00000000000000	0.12052200000000	0.00000000000000	0.00000000000000	0.00000000000000	0.00000000000000	0.00000000000000	0.00000000000000	0.00000000000000	19.07065600000000	0.00000000000000	0.00000000000000	0.00000000000000	0.00000000000000	
4.99332000000000	44.00819100000000	740.55401600000005	53.77939700000000	0.29171200000000	0.00000000000000	0.12047100000000	0.00000000000000	0.00000000000000	0.00000000000000	0.00000000000000	0.00000000000000	0.00000000000000	0.00000000000000	19.10233200000000	0.00000000000000	0.00000000000000	0.00000000000000	0.00000000000000	
4.99498800000000	43.47411800000000	743.09586700000000	53.84553900000000	0.29100300000000	0.00000000000000	0.12042100000000	0.00000000000000	0.00000000000000	0.00000000000000	0.00000000000000	0.00000000000000	0.00000000000000	0.00000000000000	19.13920100000000	0.00000000000000	0.00000000000000	0.00000000000000	0.00000000000000	
4.99665300000000	42.95030700000000	745.56924400000003	53.91903600000000	0.29031700000000	0.00000000000000	0.12037100000000	0.00000000000000	0.00000000000000	0.00000000000000	0.00000000000000	0.00000000000000	0.00000000000000	0.00000000000000	19.18088500000000	0.00000000000000	0.00000000000000	0.00000000000000	0.00000000000000	
4.99832900000000	42.43666300000000	747.97125300000005	53.99927100000000	0.28965300000000	0.00000000000000	0.12032300000000	0.00000000000000	0.00000000000000	0.00000000000000	0.00000000000000	0.00000000000000	0.00000000000000	0.00000000000000	19.22696900000000	0.00000000000000	0.00000000000000	0.00000000000000	0.00000000000000	
4.99998100000000	41.93302100000000	750.29901800000005	54.08555200000000	0.28900700000000	0.00000000000000	0.12027500000000	0.00000000000000	0.00000000000000	0.00000000000000	0.00000000000000	0.00000000000000	0.00000000000000	0.00000000000000	19.27699800000000	0.00000000000000	0.00000000000000	0.00000000000000	0.00000000000000	
5.00165200000000	41.43914800000000	752.54970100000003	54.17712100000000	0.28837800000000	0.00000000000000	0.12022900000000	0.00000000000000	0.00000000000000	0.00000000000000	0.00000000000000	0.00000000000000	0.00000000000000	0.00000000000000	19.33049000000000	0.00000000000000	0.00000000000000	0.00000000000000	0.00000000000000	
5.00331700000000	40.95475000000000	754.72051699999997	54.27316000000000	0.28776200000000	0.00000000000000	0.12018400000000	0.00000000000000	0.00000000000000	0.00000000000000	0.00000000000000	0.00000000000000	0.00000000000000	0.00000000000000	19.38693300000000	0.00000000000000	0.00000000000000	0.00000000000000	0.00000000000000	
5.00498300000000	40.47947800000000	756.80874200000005	54.37279900000000	0.28715700000000	0.00000000000000	0.12014100000000	0.00000000000000	0.00000000000000	0.00000000000000	0.00000000000000	0.00000000000000	0.00000000000000	0.00000000000000	19.44579200000000	0.00000000000000	0.00000000000000	0.00000000000000	0.00000000000000	
5.00665200000000	40.01293000000000	758.81173600000000	54.47512600000000	0.28656100000000	0.00000000000000	0.12009900000000	0.00000000000000	0.00000000000000	0.00000000000000	0.00000000000000	0.00000000000000	0.00000000000000	0.00000000000000	19.50651400000000	0.00000000000000	0.00000000000000	0.00000000000000	0.00000000000000	
5.00832200000000	39.55466000000000	760.72694899999999	54.57919400000000	0.28597000000000	0.00000000000000	0.12005900000000	0.00000000000000	0.00000000000000	0.00000000000000	0.00000000000000	0.00000000000000	0.00000000000000	0.00000000000000	19.56853200000000	0.00000000000000	0.00000000000000	0.00000000000000	0.00000000000000	
5.00998100000000	39.10418000000000	762.55193599999996	54.68402900000000	0.28538400000000	0.00000000000000	0.12002000000000	0.00000000000000	0.00000000000000	0.00000000000000	0.00000000000000	0.00000000000000	0.00000000000000	0.00000000000000	19.63126800000000	0.00000000000000	0.00000000000000	0.00000000000000	0.00000000000000	
5.01165200000000	38.66097100000000	764.28437299999996	54.78863600000000	0.28479800000000	0.00000000000000	0.11998300000000	0.00000000000000	0.00000000000000	0.00000000000000	0.00000000000000	0.00000000000000	0.00000000000000	0.00000000000000	19.69413800000000	0.00000000000000	0.00000000000000	0.00000000000000	0.00000000000000	
5.01332200000000	38.22448300000000	765.92206199999998	54.89201100000000	0.28421100000000	0.00000000000000	0.11994800000000	0.00000000000000	0.00000000000000	0.00000000000000	0.00000000000000	0.00000000000000	0.00000000000000	0.00000000000000	19.75655600000000	0.00000000000000	0.00000000000000	0.00000000000000	0.00000000000000	
5.01499000000000	37.79414500000000	767.46294699999999	54.99314700000000	0.28361900000000	0.00000000000000	0.11991500000000	0.00000000000000	0.00000000000000	0.00000000000000	0.00000000000000	0.00000000000000	0.00000000000000	0.00000000000000	19.81793900000000	0.00000000000000	0.00000000000000	0.00000000000000	0.00000000000000	
5.01665400000000	37.36936700000000	768.90512000000001	55.09104000000000	0.28302200000000	0.00000000000000	0.11988400000000	0.00000000000000	0.00000000000000	0.00000000000000	0.00000000000000	0.00000000000000	0.00000000000000	0.00000000000000	19.87771200000000	0.00000000000000	0.00000000000000	0.00000000000000	0.00000000000000	
5.01832200000000	36.94955000000000	770.24683500000003	55.18469900000000	0.28241700000000	0.00000000000000	0.11985600000000	0.00000000000000	0.00000000000000	0.00000000000000	0.00000000000000	0.00000000000000	0.00000000000000	0.00000000000000	19.93530800000000	0.00000000000000	0.00000000000000	0.00000000000000	0.00000000000000	
5.01998400000000	36.53408700000000	771.48651199999995	55.27315100000000	0.28180000000000	0.00000000000000	0.11982900000000	0.00000000000000	0.00000000000000	0.00000000000000	0.00000000000000	0.00000000000000	0.00000000000000	0.00000000000000	19.99017700000000	0.00000000000000	0.00000000000000	0.00000000000000	0.00000000000000	
5.02164700000000	36.12237100000000	772.62275000000000	55.35545000000000	0.28117200000000	0.00000000000000	0.11980400000000	0.00000000000000	0.00000000000000	0.00000000000000	0.00000000000000	0.00000000000000	0.00000000000000	0.00000000000000	20.04178400000000	0.00000000000000	0.00000000000000	0.00000000000000	0.00000000000000	
5.02332200000000	35.71379800000000	773.65432599999997	55.43068100000000	0.28052900000000	0.00000000000000	0.11978200000000	0.00000000000000	0.00000000000000	0.00000000000000	0.00000000000000	0.00000000000000	0.00000000000000	0.00000000000000	20.08961900000000	0.00000000000000	0.00000000000000	0.00000000000000	0.00000000000000	
5.02498500000000	35.30777400000000	774.58021199999996	55.49796700000000	0.27987000000000	0.00000000000000	0.11976200000000	0.00000000000000	0.00000000000000	0.00000000000000	0.00000000000000	0.00000000000000	0.00000000000000	0.00000000000000	20.13319600000000	0.00000000000000	0.00000000000000	0.00000000000000	0.00000000000000	
5.02665100000000	34.90372000000000	775.39956900000004	55.55647500000000	0.27919300000000	0.00000000000000	0.11974400000000	0.00000000000000	0.00000000000000	0.00000000000000	0.00000000000000	0.00000000000000	0.00000000000000	0.00000000000000	20.17205500000000	0.00000000000000	0.00000000000000	0.00000000000000	0.00000000000000	
5.02831600000000	34.50107200000000	776.11176100000000	55.60542100000000	0.27849600000000	0.00000000000000	0.11972800000000	0.00000000000000	0.00000000000000	0.00000000000000	0.00000000000000	0.00000000000000	0.00000000000000	0.00000000000000	20.20576900000000	0.00000000000000	0.00000000000000	0.00000000000000	0.00000000000000	
5.02998200000000	34.09929200000000	776.71635200000003	55.64407500000000	0.27777900000000	0.00000000000000	0.11971500000000	0.00000000000000	0.00000000000000	0.00000000000000	0.00000000000000	0.00000000000000	0.00000000000000	0.00000000000000	20.23394300000000	0.00000000000000	0.00000000000000	0.00000000000000	0.00000000000000	
